
    <svg width="1330" height="755" viewBox="0 30 1920 1080" fill="none" xmlns="http://www.w3.org/2000/svg">
    <g clip-path="url(#clip0_334_1979)">
    <rect width="1920" height="1080" fill="white"/>
    <rect x="960" width="960" height="1080" fill="#C4C4C4"/>
    <rect x="0.5" y="0.5" width="673" height="1079" fill="#3E8D19" stroke="black"/>
    <path d="M92.8574 962V926.307H102.501V954.212H116.246V962H92.8574ZM147.813 948.108C147.813 952.633 146.593 956.165 144.151 958.704C141.726 961.227 138.325 962.488 133.946 962.488C129.747 962.488 126.402 961.194 123.912 958.606C121.438 956.019 120.201 952.519 120.201 948.108C120.201 943.6 121.414 940.101 123.839 937.61C126.28 935.104 129.698 933.851 134.093 933.851C136.811 933.851 139.212 934.428 141.295 935.584C143.378 936.74 144.981 938.4 146.104 940.564C147.244 942.713 147.813 945.228 147.813 948.108ZM129.894 948.108C129.894 950.485 130.211 952.299 130.846 953.553C131.48 954.79 132.547 955.408 134.044 955.408C135.525 955.408 136.567 954.79 137.169 953.553C137.787 952.299 138.097 950.485 138.097 948.108C138.097 945.748 137.787 943.966 137.169 942.762C136.55 941.557 135.493 940.955 133.995 940.955C132.53 940.955 131.48 941.557 130.846 942.762C130.211 943.95 129.894 945.732 129.894 948.108ZM179.381 934.339V938.953L175.597 940.345C176.118 941.289 176.378 942.387 176.378 943.641C176.378 946.619 175.328 948.93 173.229 950.574C171.145 952.218 168.028 953.04 163.878 953.04C162.853 953.04 162.039 952.975 161.437 952.845C161.209 953.268 161.095 953.667 161.095 954.041C161.095 954.513 161.477 954.879 162.242 955.14C163.007 955.384 164.008 955.506 165.245 955.506H169.835C176.036 955.506 179.137 958.118 179.137 963.343C179.137 966.712 177.696 969.332 174.815 971.204C171.951 973.076 167.923 974.012 162.73 974.012C158.808 974.012 155.781 973.353 153.648 972.034C151.533 970.732 150.475 968.852 150.475 966.395C150.475 963.09 152.525 960.958 156.627 959.998C155.781 959.64 155.04 959.062 154.405 958.265C153.787 957.467 153.478 956.678 153.478 955.896C153.478 955.034 153.714 954.277 154.186 953.626C154.658 952.959 155.642 952.169 157.14 951.258C155.707 950.623 154.576 949.63 153.746 948.279C152.932 946.928 152.525 945.285 152.525 943.348C152.525 940.337 153.551 938.001 155.602 936.341C157.652 934.681 160.582 933.851 164.391 933.851C164.895 933.851 165.766 933.908 167.003 934.021C168.24 934.135 169.151 934.241 169.737 934.339H179.381ZM158.531 965.442C158.531 966.224 158.954 966.85 159.801 967.322C160.647 967.811 161.778 968.055 163.194 968.055C165.506 968.055 167.353 967.762 168.736 967.176C170.136 966.606 170.836 965.866 170.836 964.954C170.836 964.222 170.413 963.701 169.566 963.392C168.72 963.099 167.507 962.952 165.929 962.952H162.193C161.168 962.952 160.297 963.188 159.581 963.66C158.881 964.148 158.531 964.743 158.531 965.442ZM161.534 943.396C161.534 946.229 162.519 947.645 164.488 947.645C165.4 947.645 166.1 947.295 166.588 946.595C167.092 945.895 167.345 944.845 167.345 943.445C167.345 940.581 166.393 939.148 164.488 939.148C162.519 939.148 161.534 940.564 161.534 943.396ZM193.199 962H183.653V934.339H193.199V962ZM183.409 927.454C183.409 926.022 183.808 924.956 184.605 924.256C185.403 923.556 186.689 923.206 188.463 923.206C190.237 923.206 191.531 923.564 192.345 924.28C193.159 924.996 193.565 926.054 193.565 927.454C193.565 930.254 191.865 931.653 188.463 931.653C185.094 931.653 183.409 930.254 183.409 927.454ZM217.32 962V946.912C217.32 945.073 217.052 943.689 216.515 942.762C215.994 941.818 215.147 941.346 213.976 941.346C212.364 941.346 211.201 941.989 210.484 943.274C209.768 944.56 209.41 946.766 209.41 949.891V962H199.864V934.339H207.066L208.263 937.757H208.824C209.638 936.455 210.761 935.478 212.193 934.827C213.642 934.176 215.302 933.851 217.174 933.851C220.234 933.851 222.61 934.738 224.303 936.512C226.012 938.286 226.866 940.784 226.866 944.007V962H217.32Z" fill="white"/>
    <path d="M539.551 957.16C544.928 954.973 550.078 953.879 555 953.879C559.922 953.879 565.026 954.973 570.312 957.16C575.69 959.257 578.379 962.036 578.379 965.5V971.379H531.621V965.5C531.621 962.036 534.264 959.257 539.551 957.16ZM563.203 944.582C560.924 946.861 558.19 948 555 948C551.81 948 549.076 946.861 546.797 944.582C544.518 942.303 543.379 939.569 543.379 936.379C543.379 933.189 544.518 930.454 546.797 928.176C549.076 925.806 551.81 924.621 555 924.621C558.19 924.621 560.924 925.806 563.203 928.176C565.482 930.454 566.621 933.189 566.621 936.379C566.621 939.569 565.482 942.303 563.203 944.582Z" fill="#EFEFEF"/>
    <rect width="1429" height="1080" fill="url(#paint0_linear_334_1979)"/>
    <path d="M943 744C943 817.913 919.534 889.917 875.984 949.636C832.433 1009.36 771.047 1053.71 700.672 1076.3C630.297 1098.89 554.566 1098.55 484.393 1075.34C414.22 1052.13 353.229 1007.24 310.209 947.134C267.188 887.032 244.36 814.823 245.014 740.914C245.667 667.004 269.769 595.21 313.846 535.878C357.923 476.546 419.699 432.74 490.271 410.772C560.843 388.804 636.568 389.808 706.533 413.641L594 744H943Z" fill="url(#paint1_angular_334_1979)"/>
    <path d="M-267.615 691.371C-303.815 739.061 -324.464 796.733 -326.762 856.561C-329.059 916.389 -312.894 975.476 -280.458 1025.8C-248.023 1076.13 -200.889 1115.25 -145.453 1137.87C-90.0175 1160.49 -28.9652 1165.5 29.4177 1152.23C87.8007 1138.96 140.687 1108.05 180.898 1063.69C221.11 1019.33 246.7 963.675 254.194 904.274C261.689 844.872 250.725 784.604 222.791 731.647C194.858 678.691 151.307 635.611 98.0496 608.255L-35.2441 867.756L-267.615 691.371Z" fill="url(#paint2_angular_334_1979)"/>
    <circle cx="1118.58" cy="446.585" r="291.733" transform="rotate(16.7951 1118.58 446.585)" fill="url(#paint3_angular_334_1979)"/>
    <path d="M148.43 616.292C77.7226 608.448 11.2659 578.591 -41.5554 530.937C-94.3768 483.283 -130.894 420.239 -145.949 350.71C-161.005 281.18 -153.838 208.678 -125.461 143.442C-97.0848 78.2053 -48.932 23.5314 12.1969 -12.8593C73.3258 -49.2499 144.342 -65.5182 215.216 -59.367C286.091 -53.2157 353.242 -24.9557 407.187 21.4224C461.133 67.8004 499.146 129.953 515.859 199.103C532.572 268.252 527.141 340.905 500.332 406.801L185.861 278.862L148.43 616.292Z" fill="url(#paint4_angular_334_1979)"/>
    <path d="M460.788 77.8992C479.215 43.5708 506.04 14.4711 538.758 -6.68328C571.477 -27.8376 609.022 -40.3569 647.889 -43.0723C686.756 -45.7877 725.677 -38.6108 761.019 -22.2115C796.361 -5.81215 826.972 19.2748 849.993 50.7075C873.015 82.1401 887.697 118.894 892.668 157.537C897.64 196.18 892.739 235.452 878.423 271.689C864.107 307.925 840.843 339.943 810.803 364.754C780.762 389.565 744.925 406.359 706.637 413.57L663.96 186.96L460.788 77.8992Z" fill="url(#paint5_angular_334_1979)"/>
    <path d="M1317 0H1920V1080H772L1317 0Z" fill="white"/>
    <path d="M1495 905.016L1503.02 897L1495 888.984L1493.59 890.391L1499.17 896.016H1486.98V897.984H1499.17L1493.59 903.609L1495 905.016Z" fill="white"/>
    <path d="M1790.47 48.8672H1795.65L1790.04 66H1784.59L1779 48.8672H1784.2L1786.54 57.5508C1787.02 59.4805 1787.29 60.8242 1787.33 61.582C1787.39 61.0352 1787.5 60.3516 1787.66 59.5312C1787.82 58.7109 1787.97 58.0664 1788.09 57.5977L1790.47 48.8672ZM1805.91 66L1805.03 64.2422H1804.93C1804.32 65.0078 1803.69 65.5312 1803.05 65.8125C1802.41 66.0938 1801.58 66.2344 1800.56 66.2344C1799.31 66.2344 1798.33 65.8594 1797.61 65.1094C1796.89 64.3594 1796.53 63.3047 1796.53 61.9453C1796.53 60.5312 1797.02 59.4805 1798.01 58.793C1798.99 58.0977 1800.42 57.707 1802.29 57.6211L1804.5 57.5508V57.3633C1804.5 56.2695 1803.96 55.7227 1802.88 55.7227C1801.91 55.7227 1800.68 56.0508 1799.19 56.707L1797.87 53.6836C1799.41 52.8867 1801.37 52.4883 1803.73 52.4883C1805.43 52.4883 1806.75 52.9102 1807.68 53.7539C1808.61 54.5977 1809.08 55.7773 1809.08 57.293V66H1805.91ZM1802.51 63C1803.06 63 1803.54 62.8242 1803.93 62.4727C1804.32 62.1211 1804.52 61.6641 1804.52 61.1016V60.0703L1803.47 60.1172C1801.96 60.1719 1801.21 60.7266 1801.21 61.7812C1801.21 62.5938 1801.64 63 1802.51 63ZM1824.73 52.7227V54.9375L1822.91 55.6055C1823.16 56.0586 1823.29 56.5859 1823.29 57.1875C1823.29 58.6172 1822.78 59.7266 1821.77 60.5156C1820.77 61.3047 1819.28 61.6992 1817.29 61.6992C1816.79 61.6992 1816.4 61.668 1816.11 61.6055C1816 61.8086 1815.95 62 1815.95 62.1797C1815.95 62.4062 1816.13 62.582 1816.5 62.707C1816.87 62.8242 1817.35 62.8828 1817.94 62.8828H1820.14C1823.12 62.8828 1824.61 64.1367 1824.61 66.6445C1824.61 68.2617 1823.92 69.5195 1822.54 70.418C1821.16 71.3164 1819.23 71.7656 1816.73 71.7656C1814.85 71.7656 1813.4 71.4492 1812.38 70.8164C1811.36 70.1914 1810.85 69.2891 1810.85 68.1094C1810.85 66.5234 1811.84 65.5 1813.8 65.0391C1813.4 64.8672 1813.04 64.5898 1812.74 64.207C1812.44 63.8242 1812.29 63.4453 1812.29 63.0703C1812.29 62.6562 1812.41 62.293 1812.63 61.9805C1812.86 61.6602 1813.33 61.2812 1814.05 60.8438C1813.36 60.5391 1812.82 60.0625 1812.42 59.4141C1812.03 58.7656 1811.84 57.9766 1811.84 57.0469C1811.84 55.6016 1812.33 54.4805 1813.31 53.6836C1814.3 52.8867 1815.7 52.4883 1817.53 52.4883C1817.77 52.4883 1818.19 52.5156 1818.79 52.5703C1819.38 52.625 1819.82 52.6758 1820.1 52.7227H1824.73ZM1814.72 67.6523C1814.72 68.0273 1814.92 68.3281 1815.33 68.5547C1815.73 68.7891 1816.28 68.9062 1816.96 68.9062C1818.07 68.9062 1818.95 68.7656 1819.62 68.4844C1820.29 68.2109 1820.62 67.8555 1820.62 67.418C1820.62 67.0664 1820.42 66.8164 1820.02 66.668C1819.61 66.5273 1819.03 66.457 1818.27 66.457H1816.48C1815.98 66.457 1815.57 66.5703 1815.22 66.7969C1814.89 67.0312 1814.72 67.3164 1814.72 67.6523ZM1816.16 57.0703C1816.16 58.4297 1816.63 59.1094 1817.58 59.1094C1818.02 59.1094 1818.35 58.9414 1818.59 58.6055C1818.83 58.2695 1818.95 57.7656 1818.95 57.0938C1818.95 55.7188 1818.49 55.0312 1817.58 55.0312C1816.63 55.0312 1816.16 55.7109 1816.16 57.0703ZM1835.41 66L1834.54 64.2422H1834.44C1833.82 65.0078 1833.2 65.5312 1832.55 65.8125C1831.91 66.0938 1831.09 66.2344 1830.07 66.2344C1828.82 66.2344 1827.84 65.8594 1827.12 65.1094C1826.4 64.3594 1826.04 63.3047 1826.04 61.9453C1826.04 60.5312 1826.53 59.4805 1827.52 58.793C1828.5 58.0977 1829.93 57.707 1831.79 57.6211L1834.01 57.5508V57.3633C1834.01 56.2695 1833.47 55.7227 1832.39 55.7227C1831.42 55.7227 1830.19 56.0508 1828.7 56.707L1827.38 53.6836C1828.92 52.8867 1830.88 52.4883 1833.23 52.4883C1834.94 52.4883 1836.25 52.9102 1837.18 53.7539C1838.12 54.5977 1838.59 55.7773 1838.59 57.293V66H1835.41ZM1832.02 63C1832.57 63 1833.04 62.8242 1833.43 62.4727C1833.83 62.1211 1834.03 61.6641 1834.03 61.1016V60.0703L1832.98 60.1172C1831.47 60.1719 1830.71 60.7266 1830.71 61.7812C1830.71 62.5938 1831.15 63 1832.02 63ZM1851.96 61.9219C1851.96 63.3438 1851.48 64.418 1850.51 65.1445C1849.54 65.8711 1848.15 66.2344 1846.34 66.2344C1845.35 66.2344 1844.5 66.1797 1843.77 66.0703C1843.04 65.9688 1842.3 65.7773 1841.54 65.4961V61.8281C1842.25 62.1406 1843.03 62.3984 1843.88 62.6016C1844.73 62.8047 1845.48 62.9062 1846.15 62.9062C1847.14 62.9062 1847.64 62.6797 1847.64 62.2266C1847.64 61.9922 1847.5 61.7852 1847.21 61.6055C1846.94 61.418 1846.14 61.0586 1844.8 60.5273C1843.58 60.0273 1842.73 59.4609 1842.25 58.8281C1841.76 58.1875 1841.52 57.3789 1841.52 56.4023C1841.52 55.168 1842 54.207 1842.95 53.5195C1843.9 52.832 1845.25 52.4883 1846.99 52.4883C1847.87 52.4883 1848.69 52.5859 1849.45 52.7812C1850.23 52.9688 1851.03 53.2461 1851.86 53.6133L1850.61 56.5664C1850 56.293 1849.36 56.0625 1848.68 55.875C1848 55.6797 1847.45 55.582 1847.02 55.582C1846.27 55.582 1845.89 55.7656 1845.89 56.1328C1845.89 56.3594 1846.02 56.5547 1846.28 56.7188C1846.54 56.875 1847.3 57.1992 1848.55 57.6914C1849.48 58.0742 1850.17 58.4492 1850.62 58.8164C1851.09 59.1836 1851.42 59.6172 1851.63 60.1172C1851.85 60.6094 1851.96 61.2109 1851.96 61.9219ZM1862.33 66H1857.7V52.6523H1853.52V48.8672H1866.5V52.6523H1862.33V66ZM1868.95 66V48.8672H1873.61V66H1868.95Z" fill="#6D6D6D"/>
    <rect x="1737.12" y="42" width="27.6686" height="28" fill="#38B000"/>

    <g filter="url(#filter1_d_334_1979)">
    <circle cx="1440.5" cy="461.5" r="52.5" fill="white"/>
    </g>
    </g>
    <defs>
    <filter id="filter0_d_334_1979" x="408" y="389" width="145" height="145" filterUnits="userSpaceOnUse" color-interpolation-filters="sRGB">
    <feFlood flood-opacity="0" result="BackgroundImageFix"/>
    <feColorMatrix in="SourceAlpha" type="matrix" values="0 0 0 0 0 0 0 0 0 0 0 0 0 0 0 0 0 0 127 0" result="hardAlpha"/>
    <feOffset/>
    <feGaussianBlur stdDeviation="10"/>
    <feComposite in2="hardAlpha" operator="out"/>
    <feColorMatrix type="matrix" values="0 0 0 0 0 0 0 0 0 0 0 0 0 0 0 0 0 0 0.25 0"/>
    <feBlend mode="normal" in2="BackgroundImageFix" result="effect1_dropShadow_334_1979"/>
    <feBlend mode="normal" in="SourceGraphic" in2="effect1_dropShadow_334_1979" result="shape"/>
    </filter>
    <filter id="filter1_d_334_1979" x="1368" y="389" width="145" height="145" filterUnits="userSpaceOnUse" color-interpolation-filters="sRGB">
    <feFlood flood-opacity="0" result="BackgroundImageFix"/>
    <feOffset/>
    <feGaussianBlur stdDeviation="10"/>
    <feComposite in2="hardAlpha" operator="out"/>
    <feColorMatrix type="matrix" values="0 0 0 0 0 0 0 0 0 0 0 0 0 0 0 0 0 0 0.25 0"/>
    <feBlend mode="normal" in2="BackgroundImageFix" result="effect1_dropShadow_334_1979"/>
    <feBlend mode="normal" in="SourceGraphic" in2="effect1_dropShadow_334_1979" result="shape"/>
    </filter>
    <linearGradient id="paint0_linear_334_1979" x1="714.5" y1="0" x2="714.5" y2="1080" gradientUnits="userSpaceOnUse">
    <stop stop-color="#284B18"/>
    <stop offset="1" stop-color="#1D3612"/>
    </linearGradient>
    <radialGradient id="paint1_angular_334_1979" cx="0" cy="0" r="1" gradientUnits="userSpaceOnUse" gradientTransform="translate(594 744) rotate(33.6555) scale(1330.03)">
    <stop stop-color="#38B000"/>
    <stop offset="1" stop-color="#184D00"/>
    </radialGradient>
    <radialGradient id="paint2_angular_334_1979" cx="0" cy="0" r="1" gradientUnits="userSpaceOnUse" gradientTransform="translate(-35.2441 867.756) rotate(-109.144) scale(1111.79)">
    <stop stop-color="#38B000"/>
    <stop offset="1" stop-color="#184D00"/>
    </radialGradient>
    <radialGradient id="paint3_angular_334_1979" cx="0" cy="0" r="1" gradientUnits="userSpaceOnUse" gradientTransform="translate(1118.58 446.585) rotate(33.6555) scale(1111.79)">
    <stop stop-color="#38B000"/>
    <stop offset="1" stop-color="#184D00"/>
    </radialGradient>
    <radialGradient id="paint4_angular_334_1979" cx="0" cy="0" r="1" gradientUnits="userSpaceOnUse" gradientTransform="translate(185.861 278.861) rotate(129.985) scale(1293.83)">
    <stop stop-color="#38B000"/>
    <stop offset="1" stop-color="#184D00"/>
    </radialGradient>
    <radialGradient id="paint5_angular_334_1979" cx="0" cy="0" r="1" gradientUnits="userSpaceOnUse" gradientTransform="translate(663.96 186.96) rotate(-36.9994) scale(878.785)">
    <stop stop-color="#38B000"/>
    <stop offset="1" stop-color="#38B000" stop-opacity="0"/>
    </radialGradient>
    <clipPath id="clip0_334_1979">
    <rect width="1920" height="1080" fill="white"/>
    </clipPath>
    </defs>
    </svg>
